<svg width="111" height="99" viewBox="0 0 111 99" fill="none" xmlns="http://www.w3.org/2000/svg">
<path d="M110.113 80.9603C110.113 90.9014 102.055 98.9603 92.1134 98.9603L57.443 98.9603C54.6816 98.9603 52.443 96.7217 52.443 93.9603L52.4431 46.7929C52.4431 41.2701 56.9202 36.7929 62.4431 36.7929L105.113 36.7929C107.875 36.7929 110.113 39.0315 110.113 41.7929L110.113 80.9603Z" fill="#FFF1DA"/>
<g filter="url(#filter0_dd_1_357)">
<path d="M31.1362 64.2701L28.9585 63.1234L16.0211 84.1647H30.4594L31.8507 83.1668V64.9903L31.1362 64.2701Z" fill="#407093"/>
<path d="M29.1552 63.2271L24.2589 60.6487H23.336L9.49084 83.1668L10.3151 84.1647H16.2817L29.1552 63.2271Z" fill="#365E7D"/>
<path d="M34.4499 83.1667H15.3582C14.4909 83.1667 13.7877 83.94 13.7877 84.8942V87.0832C13.7877 88.037 14.4907 88.8103 15.3579 88.8105H34.4499C35.3172 88.8105 36.0204 88.0372 36.0204 87.0832V84.8942C36.0204 83.94 35.3172 83.1667 34.4499 83.1667V83.1667Z" fill="#4A80AA"/>
<path d="M14.1128 87.0832V84.8941C14.1128 83.9401 14.8159 83.1667 15.6832 83.1667H5.57045C4.70315 83.1667 4 83.94 4 84.8941V87.0832C4 88.0372 4.70315 88.8105 5.57045 88.8105H15.6831C14.8158 88.8105 14.1128 88.0372 14.1128 87.0832V87.0832Z" fill="#407093"/>
<path d="M28.4981 50.7269C27.9103 52.0604 27.5782 53.5556 27.5782 55.1374C27.5782 59.4598 30.0389 63.147 33.5021 64.6056C34.989 64.0932 36.3101 63.1688 37.3537 61.9518V59.7432L28.4981 50.7269Z" fill="#4A80AA"/>
<path d="M27.7332 55.1721C27.7332 53.6269 28.058 52.1664 28.6331 50.8643L25.8024 47.9821H24.6538C22.9168 49.7845 21.8309 52.338 21.8309 55.1719C21.8309 60.6313 25.8543 65.0569 30.8175 65.0569C31.8513 65.0569 32.8427 64.8618 33.7668 64.5081C30.2547 63.1642 27.7332 59.4931 27.7332 55.1721V55.1721Z" fill="#407093"/>
<path d="M79.908 1.17318C78.4859 -0.39106 76.1803 -0.39106 74.7584 1.17318L71.2833 4.99567V5.48013L75.6206 10.4537L76.4329 10.6601L79.9078 6.83761C81.33 5.27355 81.33 2.73742 79.908 1.17318V1.17318Z" fill="#FFD086"/>
<path d="M80.8686 3.06387C80.7169 2.37143 80.3993 1.71385 79.908 1.17318C78.4859 -0.39106 76.1803 -0.39106 74.7584 1.17318L71.2833 4.99567V5.48013L73.5829 8.11704C74.9539 6.54777 76.3151 4.99914 77.0151 4.22916C78.182 2.94574 79.8864 2.93586 80.8686 3.06387V3.06387Z" fill="#FFC365"/>
<path d="M68.0112 11.3554C67.9713 11.3554 67.9309 11.3531 67.8904 11.3488L27.7329 7.00091C27.0631 6.9284 26.5738 6.27256 26.6397 5.53588C26.7057 4.79921 27.3022 4.26132 27.9716 4.3333L68.1291 8.68102C68.7987 8.75352 69.2882 9.40937 69.2222 10.146C69.1603 10.8383 68.6303 11.3554 68.0112 11.3554Z" fill="#365E7D"/>
<path d="M39.3472 19.6248C38.8068 19.6248 38.3131 19.2262 38.1696 18.6243C37.9988 17.9082 38.3881 17.1755 39.0389 16.9877L67.7012 8.71809C68.352 8.53058 69.0182 8.9585 69.1888 9.67454C69.3596 10.3904 68.9704 11.1231 68.3195 11.3109L39.6572 19.5805C39.5535 19.6104 39.4494 19.6248 39.3472 19.6248V19.6248Z" fill="#407093"/>
<path d="M75.7956 59.8025C75.176 59.8025 74.646 59.2849 74.5844 58.5925L70.6563 14.3931C70.5908 13.6565 71.0806 13.0009 71.7503 12.9287C72.42 12.86 73.016 13.3957 73.0814 14.1323L77.0095 58.3318C77.0749 59.0683 76.5852 59.724 75.9154 59.7961C75.8752 59.8003 75.8352 59.8025 75.7956 59.8025Z" fill="#365E7D"/>
<path d="M64.2369 47.2567C64.1336 47.2567 64.0286 47.242 63.9239 47.2116C63.2734 47.0219 62.886 46.2881 63.0585 45.5726L70.6871 13.923C70.8595 13.2073 71.5264 12.7818 72.177 12.9709C72.8275 13.1607 73.2149 13.8944 73.0424 14.6099L65.4138 46.2595C65.2692 46.86 64.7761 47.2567 64.2369 47.2567V47.2567Z" fill="#407093"/>
<path d="M67.7913 8.83575L71.2751 5.00353L76.424 10.6672L72.9401 14.4994L67.7913 8.83575Z" fill="#FFC365"/>
<path d="M70.4373 11.7302C71.2746 10.7658 72.5822 9.26156 73.8469 7.81527L71.2836 4.99554L67.7991 8.82826L70.4373 11.7302Z" fill="#FFA90F"/>
<path d="M73.7244 16.6861C73.4126 16.6861 73.1007 16.5551 72.8629 16.2935L66.1621 8.92298C65.6862 8.39948 65.6862 7.5511 66.1621 7.02743C66.6379 6.50428 67.4093 6.50428 67.8852 7.02743L74.586 14.398C75.0619 14.9215 75.0619 15.7699 74.586 16.2935C74.3481 16.5553 74.0363 16.6861 73.7244 16.6861Z" fill="#4A80AA"/>
<path d="M74.5109 62.2151L33.714 16.9501C28.3051 30.3817 27.3659 44.8003 31.4151 57.2339C42.598 68.33 59.3031 70.0339 74.6819 63.0588L74.5109 62.2151Z" fill="#B5DCFF"/>
<path d="M33.9312 17.1912L24.584 6.82031L23.6473 6.92196C17.0618 24.4903 18.9847 43.6336 30.1458 55.9106C30.8219 56.6542 31.5214 57.3598 32.2416 58.0292C27.5367 45.6103 28.3013 30.8397 33.9312 17.1912V17.1912Z" fill="#8BCAFF"/>
<path d="M78.2389 58.9977L36.8621 13.4842C36.455 13.5532 36.063 13.7569 35.7495 14.1017L33.9497 16.0815C33.5632 16.5067 33.371 17.0619 33.3655 17.6192L74.6111 62.9883C75.2243 63.6629 76.2186 63.6629 76.8318 62.9883L78.2391 61.4405C78.8522 60.7661 78.8522 59.6723 78.2389 58.9977Z" fill="#DBEDFF"/>
<path d="M34.0119 16.1154L35.7741 14.177C36.0987 13.82 36.5085 13.6157 36.9314 13.5604L27.3393 3.00929C26.7261 2.33471 25.7318 2.33471 25.1184 3.00929L23.7112 4.55723C23.0979 5.2318 23.0979 6.32545 23.7112 7.00003L33.4381 17.6994C33.4253 17.1277 33.6153 16.5516 34.0119 16.1154V16.1154Z" fill="#B5DCFF"/>
</g>
<defs>
<filter id="filter0_dd_1_357" x="0" y="0" width="84.9745" height="96.8105" filterUnits="userSpaceOnUse" color-interpolation-filters="sRGB">
<feFlood flood-opacity="0" result="BackgroundImageFix"/>
<feColorMatrix in="SourceAlpha" type="matrix" values="0 0 0 0 0 0 0 0 0 0 0 0 0 0 0 0 0 0 127 0" result="hardAlpha"/>
<feOffset dy="4"/>
<feGaussianBlur stdDeviation="2"/>
<feComposite in2="hardAlpha" operator="out"/>
<feColorMatrix type="matrix" values="0 0 0 0 0 0 0 0 0 0 0 0 0 0 0 0 0 0 0.25 0"/>
<feBlend mode="normal" in2="BackgroundImageFix" result="effect1_dropShadow_1_357"/>
<feColorMatrix in="SourceAlpha" type="matrix" values="0 0 0 0 0 0 0 0 0 0 0 0 0 0 0 0 0 0 127 0" result="hardAlpha"/>
<feOffset dy="4"/>
<feGaussianBlur stdDeviation="2"/>
<feComposite in2="hardAlpha" operator="out"/>
<feColorMatrix type="matrix" values="0 0 0 0 0 0 0 0 0 0 0 0 0 0 0 0 0 0 0.25 0"/>
<feBlend mode="normal" in2="effect1_dropShadow_1_357" result="effect2_dropShadow_1_357"/>
<feBlend mode="normal" in="SourceGraphic" in2="effect2_dropShadow_1_357" result="shape"/>
</filter>
</defs>
</svg>
