<svg width="108" height="43" viewBox="0 0 108 43" fill="none" xmlns="http://www.w3.org/2000/svg">
<g filter="url(#filter0_d_108_78)">
<rect x="4" width="100" height="35" rx="17.5" fill="#080809"/>
</g>
<path d="M25.7893 23.9998C23.408 23.9861 21.4382 19.1251 21.4382 16.6495C21.4382 12.6057 24.4718 11.7203 25.641 11.7203C26.1678 11.7203 26.7304 11.9273 27.2266 12.1103C27.5736 12.2381 27.9325 12.3699 28.1321 12.3699C28.2516 12.3699 28.5331 12.2578 28.7817 12.1593C29.3118 11.9483 29.9714 11.686 30.7395 11.686C30.7409 11.686 30.7427 11.686 30.7441 11.686C31.3176 11.686 33.0567 11.8119 34.1022 13.382L34.3471 13.7501L33.9947 14.016C33.4911 14.396 32.5724 15.089 32.5724 16.4619C32.5724 18.0878 33.6129 18.7132 34.1128 19.0139C34.3334 19.1467 34.5618 19.2835 34.5618 19.5829C34.5618 19.7784 33.0018 23.9756 30.7363 23.9756C30.182 23.9756 29.7901 23.809 29.4445 23.662C29.0948 23.5133 28.7931 23.3851 28.2946 23.3851C28.0419 23.3851 27.7224 23.5046 27.3841 23.6314C26.9218 23.8039 26.3985 23.9998 25.8048 23.9998H25.7893Z" fill="white"/>
<path d="M30.9795 8C31.0385 10.1274 29.5171 11.6033 27.9975 11.5107C27.7471 9.81297 29.5169 8 30.9795 8Z" fill="white"/>
<path d="M43.03 13.0001H44.08L42.652 8.80012H41.428L40 13.0001H41.05L41.26 12.3401H42.82L43.03 13.0001ZM41.548 11.4401L42.04 9.89812L42.532 11.4401H41.548Z" fill="white"/>
<path d="M46.2049 10.0001L45.5809 11.9021L44.9569 10.0001H43.9609L45.0709 13.0001H46.0909L47.2009 10.0001H46.2049Z" fill="white"/>
<path d="M49.592 10.0001V10.2821C49.394 10.0541 49.1 9.91612 48.698 9.91612C47.912 9.91612 47.264 10.6061 47.264 11.5001C47.264 12.3941 47.912 13.0841 48.698 13.0841C49.1 13.0841 49.394 12.9461 49.592 12.7181V13.0001H50.492V10.0001H49.592ZM48.878 12.2321C48.464 12.2321 48.164 11.9501 48.164 11.5001C48.164 11.0501 48.464 10.7681 48.878 10.7681C49.292 10.7681 49.592 11.0501 49.592 11.5001C49.592 11.9501 49.292 12.2321 48.878 12.2321Z" fill="white"/>
<path d="M51.1523 13.0001H52.0523V8.62012H51.1523V13.0001Z" fill="white"/>
<path d="M53.1609 9.73612C53.4549 9.73612 53.7009 9.49012 53.7009 9.19612C53.7009 8.90212 53.4549 8.65612 53.1609 8.65612C52.8669 8.65612 52.6209 8.90212 52.6209 9.19612C52.6209 9.49012 52.8669 9.73612 53.1609 9.73612ZM52.7109 13.0001H53.6109V10.0001H52.7109V13.0001Z" fill="white"/>
<path d="M56.0635 9.91612C55.6615 9.91612 55.3675 10.0541 55.1695 10.2821V8.80012H54.2695V13.0001H55.1695V12.7181C55.3675 12.9461 55.6615 13.0841 56.0635 13.0841C56.8495 13.0841 57.4975 12.3941 57.4975 11.5001C57.4975 10.6061 56.8495 9.91612 56.0635 9.91612ZM55.8835 12.2321C55.4695 12.2321 55.1695 11.9501 55.1695 11.5001C55.1695 11.0501 55.4695 10.7681 55.8835 10.7681C56.2975 10.7681 56.5975 11.0501 56.5975 11.5001C56.5975 11.9501 56.2975 12.2321 55.8835 12.2321Z" fill="white"/>
<path d="M58.0077 13.0001H58.9077V8.62012H58.0077V13.0001Z" fill="white"/>
<path d="M60.3703 11.8601H62.5003C62.5243 11.7461 62.5363 11.6261 62.5363 11.5001C62.5363 10.5941 61.8883 9.91612 61.0123 9.91612C60.0643 9.91612 59.4163 10.6061 59.4163 11.5001C59.4163 12.3941 60.0523 13.0841 61.0783 13.0841C61.6483 13.0841 62.0923 12.8741 62.3863 12.4661L61.6663 12.0521C61.5463 12.1841 61.3363 12.2801 61.0903 12.2801C60.7603 12.2801 60.4843 12.1721 60.3703 11.8601ZM60.3523 11.1881C60.4363 10.8821 60.6643 10.7141 61.0063 10.7141C61.2763 10.7141 61.5463 10.8401 61.6423 11.1881H60.3523Z" fill="white"/>
<path d="M65.9868 13.0841C66.8688 13.0841 67.5768 12.3941 67.5768 11.5001C67.5768 10.6061 66.8688 9.91612 65.9868 9.91612C65.1048 9.91612 64.3968 10.6061 64.3968 11.5001C64.3968 12.3941 65.1048 13.0841 65.9868 13.0841ZM65.9868 12.2081C65.5968 12.2081 65.2968 11.9261 65.2968 11.5001C65.2968 11.0741 65.5968 10.7921 65.9868 10.7921C66.3768 10.7921 66.6768 11.0741 66.6768 11.5001C66.6768 11.9261 66.3768 12.2081 65.9868 12.2081Z" fill="white"/>
<path d="M69.8439 9.91612C69.4479 9.91612 69.1479 10.0601 68.9859 10.2821V10.0001H68.0859V13.0001H68.9859V11.3621C68.9859 10.9361 69.2139 10.7441 69.5439 10.7441C69.8319 10.7441 70.0659 10.9181 70.0659 11.2901V13.0001H70.9659V11.1581C70.9659 10.3481 70.4499 9.91612 69.8439 9.91612Z" fill="white"/>
<path d="M74.8419 10.8641V10.0001H74.2239V9.16012L73.3239 9.43012V10.0001H72.8439V10.8641H73.3239V11.9261C73.3239 12.7661 73.6659 13.1201 74.8419 13.0001V12.1841C74.4459 12.2081 74.2239 12.1841 74.2239 11.9261V10.8641H74.8419Z" fill="white"/>
<path d="M77.1095 9.91612C76.7135 9.91612 76.4135 10.0601 76.2515 10.2821V8.80012H75.3515V13.0001H76.2515V11.3621C76.2515 10.9361 76.4795 10.7441 76.8095 10.7441C77.0975 10.7441 77.3315 10.9181 77.3315 11.2901V13.0001H78.2315V11.1581C78.2315 10.3481 77.7155 9.91612 77.1095 9.91612Z" fill="white"/>
<path d="M79.6535 11.8601H81.7835C81.8075 11.7461 81.8195 11.6261 81.8195 11.5001C81.8195 10.5941 81.1715 9.91612 80.2955 9.91612C79.3475 9.91612 78.6995 10.6061 78.6995 11.5001C78.6995 12.3941 79.3355 13.0841 80.3615 13.0841C80.9315 13.0841 81.3755 12.8741 81.6695 12.4661L80.9495 12.0521C80.8295 12.1841 80.6195 12.2801 80.3735 12.2801C80.0435 12.2801 79.7675 12.1721 79.6535 11.8601ZM79.6355 11.1881C79.7195 10.8821 79.9475 10.7141 80.2895 10.7141C80.5595 10.7141 80.8295 10.8401 80.9255 11.1881H79.6355Z" fill="white"/>
<path d="M45.05 24.0001H46.8L44.42 17.0001H42.38L40 24.0001H41.75L42.1 22.9001H44.7L45.05 24.0001ZM42.58 21.4001L43.4 18.8301L44.22 21.4001H42.58Z" fill="white"/>
<path d="M50.3369 18.8601C49.6669 18.8601 49.1769 19.0901 48.8469 19.4701V19.0001H47.3469V26.0001H48.8469V23.5301C49.1769 23.9101 49.6669 24.1401 50.3369 24.1401C51.6469 24.1401 52.7269 22.9901 52.7269 21.5001C52.7269 20.0101 51.6469 18.8601 50.3369 18.8601ZM50.0369 22.7201C49.3469 22.7201 48.8469 22.2501 48.8469 21.5001C48.8469 20.7501 49.3469 20.2801 50.0369 20.2801C50.7269 20.2801 51.2269 20.7501 51.2269 21.5001C51.2269 22.2501 50.7269 22.7201 50.0369 22.7201Z" fill="white"/>
<path d="M56.5673 18.8601C55.8973 18.8601 55.4073 19.0901 55.0773 19.4701V19.0001H53.5773V26.0001H55.0773V23.5301C55.4073 23.9101 55.8973 24.1401 56.5673 24.1401C57.8773 24.1401 58.9573 22.9901 58.9573 21.5001C58.9573 20.0101 57.8773 18.8601 56.5673 18.8601ZM56.2673 22.7201C55.5773 22.7201 55.0773 22.2501 55.0773 21.5001C55.0773 20.7501 55.5773 20.2801 56.2673 20.2801C56.9573 20.2801 57.4573 20.7501 57.4573 21.5001C57.4573 22.2501 56.9573 22.7201 56.2673 22.7201Z" fill="white"/>
<path d="M59.8078 24.0001H61.3078V16.7001H59.8078V24.0001Z" fill="white"/>
<path d="M63.7455 22.1001H67.2955C67.3355 21.9101 67.3555 21.7101 67.3555 21.5001C67.3555 19.9901 66.2755 18.8601 64.8155 18.8601C63.2355 18.8601 62.1555 20.0101 62.1555 21.5001C62.1555 22.9901 63.2155 24.1401 64.9255 24.1401C65.8755 24.1401 66.6155 23.7901 67.1055 23.1101L65.9055 22.4201C65.7055 22.6401 65.3555 22.8001 64.9455 22.8001C64.3955 22.8001 63.9355 22.6201 63.7455 22.1001ZM63.7155 20.9801C63.8555 20.4701 64.2355 20.1901 64.8055 20.1901C65.2555 20.1901 65.7055 20.4001 65.8655 20.9801H63.7155Z" fill="white"/>
<path d="M73.2062 24.1401C74.7262 24.1401 75.8063 23.3401 75.8063 21.9901C75.8063 20.5101 74.6163 20.1401 73.5563 19.8201C72.4663 19.4901 72.2962 19.2701 72.2962 18.9501C72.2962 18.6701 72.5462 18.4201 73.0462 18.4201C73.6862 18.4201 74.0162 18.7301 74.2562 19.2301L75.6063 18.4401C75.0963 17.4101 74.1963 16.8601 73.0462 16.8601C71.8363 16.8601 70.6963 17.6401 70.6963 18.9901C70.6963 20.3301 71.7162 20.8301 72.7562 21.1201C73.8062 21.4101 74.2062 21.5801 74.2062 22.0101C74.2062 22.2801 74.0162 22.5801 73.2562 22.5801C72.4662 22.5801 72.0363 22.1901 71.7862 21.6101L70.4062 22.4101C70.7962 23.4401 71.7362 24.1401 73.2062 24.1401Z" fill="white"/>
<path d="M79.3394 20.4401V19.0001H78.3094V17.6001L76.8094 18.0501V19.0001H76.0094V20.4401H76.8094V22.2101C76.8094 23.6101 77.3794 24.2001 79.3394 24.0001V22.6401C78.6794 22.6801 78.3094 22.6401 78.3094 22.2101V20.4401H79.3394Z" fill="white"/>
<path d="M82.491 24.1401C83.961 24.1401 85.141 22.9901 85.141 21.5001C85.141 20.0101 83.961 18.8601 82.491 18.8601C81.021 18.8601 79.841 20.0101 79.841 21.5001C79.841 22.9901 81.021 24.1401 82.491 24.1401ZM82.491 22.6801C81.841 22.6801 81.341 22.2101 81.341 21.5001C81.341 20.7901 81.841 20.3201 82.491 20.3201C83.141 20.3201 83.641 20.7901 83.641 21.5001C83.641 22.2101 83.141 22.6801 82.491 22.6801Z" fill="white"/>
<path d="M87.4895 19.8901V19.0001H85.9895V24.0001H87.4895V21.7401C87.4895 20.7501 88.3695 20.5001 88.9895 20.6001V18.9001C88.3595 18.9001 87.6895 19.2201 87.4895 19.8901Z" fill="white"/>
<path d="M90.8841 22.1001H94.4341C94.4741 21.9101 94.4941 21.7101 94.4941 21.5001C94.4941 19.9901 93.4141 18.8601 91.9541 18.8601C90.3741 18.8601 89.2941 20.0101 89.2941 21.5001C89.2941 22.9901 90.3541 24.1401 92.0641 24.1401C93.0141 24.1401 93.7541 23.7901 94.2441 23.1101L93.0441 22.4201C92.8441 22.6401 92.4941 22.8001 92.0841 22.8001C91.5341 22.8001 91.0741 22.6201 90.8841 22.1001ZM90.8541 20.9801C90.9941 20.4701 91.3741 20.1901 91.9441 20.1901C92.3941 20.1901 92.8441 20.4001 93.0041 20.9801H90.8541Z" fill="white"/>
<defs>
<filter id="filter0_d_108_78" x="0" y="0" width="108" height="43" filterUnits="userSpaceOnUse" color-interpolation-filters="sRGB">
<feFlood flood-opacity="0" result="BackgroundImageFix"/>
<feColorMatrix in="SourceAlpha" type="matrix" values="0 0 0 0 0 0 0 0 0 0 0 0 0 0 0 0 0 0 127 0" result="hardAlpha"/>
<feOffset dy="4"/>
<feGaussianBlur stdDeviation="2"/>
<feComposite in2="hardAlpha" operator="out"/>
<feColorMatrix type="matrix" values="0 0 0 0 0 0 0 0 0 0 0 0 0 0 0 0 0 0 0.25 0"/>
<feBlend mode="normal" in2="BackgroundImageFix" result="effect1_dropShadow_108_78"/>
<feBlend mode="normal" in="SourceGraphic" in2="effect1_dropShadow_108_78" result="shape"/>
</filter>
</defs>
</svg>
